<svg preserveAspectRatio="xMidYMid meet" data-bbox="0 0 202.017 201.999" xmlns="http://www.w3.org/2000/svg" viewBox="0 0 202.017 201.999" height="202" width="203" data-type="color" role="presentation" aria-hidden="true" aria-label="">
    <g>
        <path fill="#22AF64" d="M89.212.653c20.347-2.28 41.434 1.404 59.479 11.214 20.147 10.728 36.45 28.499 45.32 49.543 8.996 20.98 10.39 45.034 4.287 66.997-6.42 23.103-21.457 43.641-41.476 56.829-18.891 12.65-42.205 18.436-64.833 16.345-23.22-1.942-45.605-12.385-62.098-28.836C13.292 156.367 2.627 134.067.505 110.826c-2.207-21.593 2.872-43.841 14.202-62.362C30.46 22.225 58.759 3.968 89.212.653m26.683 40.346c-.117 7.402.01 14.804-.032 22.206-5.227.095-10.464-.137-15.691.084-3.727.222-6.874 3.664-6.8 7.402-.264 3.875 2.978 7.75 6.948 7.772 7.719.158 15.458.042 23.177.063 3.822.275 7.56-2.956 7.645-6.821.148-4.741-.032-9.482.021-14.234 11.076 9.503 22.237 18.911 33.208 28.541-11.118 9.43-22.132 18.975-33.229 28.425-.021-4.762.148-9.513 0-14.275-.042-3.876-3.791-6.98-7.56-6.832-14.984-.074-29.956.01-44.94-.032-.084-7.782.159-15.564-.084-23.335-.317-6.188-8.965-9.092-13.051-4.51-15.015 14.91-29.946 29.915-44.919 44.866-3.273 2.904-3.294 8.564.043 11.425 14.962 14.952 29.913 29.925 44.876 44.876 3.97 4.382 12.575 1.764 13.008-4.297.338-7.856.022-15.733.138-23.6 5.09-.074 10.19.085 15.279-.031 4.075.074 7.581-3.897 7.19-7.92.095-3.833-3.262-7.233-7.064-7.328-7.813-.084-15.627-.074-23.43-.01-3.833-.032-7.423 3.358-7.275 7.264-.127 3.939.031 7.888-.032 11.837-8.838-8.838-17.686-17.676-26.514-26.524q13.241-13.274 26.514-26.514c.063 3.917-.085 7.845.032 11.773-.18 3.907 3.368 7.466 7.285 7.318 15.079.095 30.157-.011 45.225.042.084 7.729-.18 15.48.116 23.198.137 6.029 8.31 9.197 12.618 5.1 17.296-14.719 34.475-29.576 51.761-44.306 5.068-3.23 4.508-10.939-.592-13.843a22469 22469 0 0 1-47.801-40.969c-2.47-2.048-4.931-4.867-8.436-4.73-4.161-.021-7.856 3.748-7.634 7.92" data-color="1"></path>
        <path fill="#ffffff" d="M115.895 40.998c-.222-4.17 3.474-7.94 7.634-7.919 3.506-.137 5.966 2.682 8.437 4.73a22010 22010 0 0 0 47.801 40.97c5.1 2.904 5.659 10.612.591 13.843-17.285 14.73-34.465 29.586-51.761 44.306-4.308 4.096-12.48.929-12.618-5.101-.295-7.718-.031-15.469-.116-23.198-15.068-.053-30.146.053-45.224-.042-3.918.148-7.465-3.411-7.286-7.317-.116-3.928.032-7.856-.032-11.774a15486 15486 0 0 0-26.513 26.514c8.827 8.848 17.675 17.686 26.513 26.524.064-3.949-.095-7.898.032-11.836-.148-3.907 3.442-7.297 7.275-7.265a1237 1237 0 0 1 23.43.011c3.802.095 7.16 3.495 7.065 7.328.39 4.023-3.115 7.993-7.19 7.919-5.09.116-10.19-.042-15.28.032-.116 7.866.2 15.743-.137 23.599-.433 6.061-9.039 8.68-13.009 4.298-14.962-14.952-29.914-29.925-44.876-44.876-3.337-2.862-3.316-8.522-.042-11.425 14.973-14.952 29.903-29.956 44.918-44.866 4.086-4.583 12.734-1.679 13.051 4.509.243 7.771 0 15.553.084 23.335 14.984.043 29.957-.042 44.94.032 3.77-.148 7.518 2.957 7.56 6.832.148 4.762-.021 9.514 0 14.276 11.098-9.451 22.111-18.996 33.23-28.425-10.971-9.63-22.132-19.038-33.209-28.541-.052 4.751.127 9.492-.021 14.233-.084 3.865-3.822 7.096-7.645 6.821-7.718-.02-15.458.095-23.177-.063-3.97-.021-7.212-3.896-6.948-7.772-.073-3.737 3.073-7.18 6.8-7.401 5.227-.222 10.464.01 15.691-.085.042-7.402-.084-14.804.032-22.206" data-color="2"></path>
    </g>
</svg>